<svg viewBox="0 0 32 32" xmlns="http://www.w3.org/2000/svg" xmlns:xlink="http://www.w3.org/1999/xlink" overflow="hidden"><g><path d="M19.62 4.15C19.3196 3.95564 18.9383 3.93658 18.62 4.1L7.47 9.5 2 9.5C1.44772 9.5 1 9.94771 1 10.5L1 21.5C1 22.0523 1.44772 22.5 2 22.5L7.47 22.5 18.66 27.9C19.1586 28.1375 19.7553 27.9258 19.9928 27.4272 20.0564 27.2937 20.0896 27.1478 20.09 27L20.09 5C20.0907 4.6545 19.913 4.33312 19.62 4.15ZM3 11.5 6.7 11.5 6.7 20.5 3 20.5ZM18.09 25.41 8.7 20.87 8.7 11.13 18.09 6.6ZM25.37 9.72C25.0737 9.25392 24.4557 9.11627 23.9896 9.41256 23.5511 9.69134 23.3991 10.2595 23.64 10.72 25.4742 14.0046 25.4742 18.0054 23.64 21.29 23.384 21.7794 23.5732 22.3836 24.0626 22.6396 24.523 22.8805 25.0912 22.7285 25.37 22.29 27.5574 18.3891 27.5574 13.6309 25.37 9.73Z" fill="#F58549"/><path d="M23 13.87C22.6582 13.4362 22.0294 13.3616 21.5956 13.7034 21.2444 13.9802 21.1196 14.4566 21.29 14.87 21.6922 15.541 21.6922 16.379 21.29 17.05 21.0795 17.5606 21.3228 18.1452 21.8334 18.3556 22.2469 18.526 22.7232 18.4013 23 18.05 23.7911 16.7402 23.7911 15.0998 23 13.79ZM28.59 6.44C28.3139 5.95399 27.696 5.78386 27.21 6.06 26.724 6.33614 26.5539 6.95399 26.83 7.44 29.7191 12.8094 29.7191 19.2706 26.83 24.64 26.5539 25.126 26.724 25.7439 27.21 26.02 27.696 26.2961 28.3139 26.126 28.59 25.64 31.8027 19.6751 31.8027 12.4949 28.59 6.53Z" fill="#F58549"/></g></svg>